<svg
  width="251"
  height="181"
  viewBox="0 0 251 181"
  fill="none"
  xmlns="http://www.w3.org/2000/svg"
>
  <path
    fill-rule="evenodd"
    clip-rule="evenodd"
    d="M241.363 138.347H9.31959V10.7443H241.363V138.347ZM247.119 -2.06632e-06H3.42732C1.49826 -2.06632e-06 0 1.70476 0 3.5976V146.293C0 148.186 1.49826 149.552 3.42732 149.552H103.441V167.16H103.434L90.651 178.337C90.1918 178.495 89.8611 178.932 89.8611 179.433C89.8611 180.066 90.3877 180.587 91.038 180.587L159.742 180.59C160.392 180.59 160.919 180.032 160.919 179.401C160.919 179.106 160.802 178.822 160.613 178.593H160.725L147.473 167.334V149.552H247.119C249.05 149.552 250.681 148.186 250.681 146.293V3.5976C250.681 1.70476 249.05 -2.06632e-06 247.119 -2.06632e-06"
    fill="#231F20"
  />
</svg>
