<svg
  xmlns:dc="http://purl.org/dc/elements/1.1/"
  xmlns:cc="http://creativecommons.org/ns#"
  xmlns:rdf="http://www.w3.org/1999/02/22-rdf-syntax-ns#"
  xmlns:svg="http://www.w3.org/2000/svg"
  xmlns="http://www.w3.org/2000/svg"
  version="1.1"
  width="3197.7625"
  height="4865"
  id="svg2"
  xml:space="preserve"
  wtx-context="0FA4D1E6-816F-46A8-BA6F-5306E330E9C2"
>
  <metadata id="metadata8">
    <rdf:RDF
      ><cc:Work rdf:about=""
        ><dc:format>image/svg+xml</dc:format
        ><dc:type
          rdf:resource="http://purl.org/dc/dcmitype/StillImage" /><dc:title /></cc:Work
    ></rdf:RDF>
  </metadata>
  <defs id="defs6">
    <clipPath id="clipPath18">
      <path d="M 0,14670 0,0 l 9642.59,0 0,14670 L 0,14670 z" id="path20" />
    </clipPath>
  </defs>
  <g transform="matrix(1.25,0,0,-1.25,0,4865)" id="g10">
    <g transform="scale(0.265303,0.265303)" id="g12">
      <g id="g14">
        <g clip-path="url(#clipPath18)" id="g16">
          <path
            d="m 4459.84,12480.1 -407.88,0 0,2139.6 c 0,27.8 -21.67,50.3 -49.41,50.3 l -3502.976,0 c -27.742,0 -51.031,-22.5 -51.031,-50.3 l 0,-2139.6 -432.6641,0 C 7.55078,12480.1 0,12473.3 0,12465 l 0,-18.9 c 0,-8.3 7.55078,-15 15.8789,-15 l 4443.9611,0 c 8.33,0 14.28,6.7 14.28,15 l 0,18.9 c 0,8.3 -5.95,15.1 -14.28,15.1"
            id="path22"
            style="
              fill: #575454;
              fill-opacity: 1;
              fill-rule: evenodd;
              stroke: none;
            "
          />
          <path
            d="m 596.344,12333.1 3305.716,0 c 451.18,0 572.85,82.9 572.85,82.9 l -4451.492,0 c 0,0 121.68,-82.9 572.926,-82.9"
            id="path24"
            style="
              fill: #575454;
              fill-opacity: 1;
              fill-rule: evenodd;
              stroke: none;
            "
          />
          <path
            d="m 2237.86,14624.8 c 18.74,0 33.93,-15.2 33.93,-34 0,-18.7 -15.19,-33.9 -33.93,-33.9 -18.73,0 -33.92,15.2 -33.92,33.9 0,18.8 15.19,34 33.92,34"
            id="path26"
            style="
              fill: #918f90;
              fill-opacity: 1;
              fill-rule: evenodd;
              stroke: none;
            "
          />
          <path
            d="m 639.719,12637.1 3196.27,0 0,1850.73 -3196.27,0 0,-1850.73 z"
            id="path28"
            style="
              fill: #ffffff;
              fill-opacity: 1;
              fill-rule: evenodd;
              stroke: none;
            "
          />
          <path
            d="m 5764,12333.1 3305.73,0 c 451.18,0 572.86,82.9 572.86,82.9 l -4451.51,0 c 0,0 121.67,-82.9 572.92,-82.9"
            id="path30"
            style="
              fill: #231f20;
              fill-opacity: 1;
              fill-rule: evenodd;
              stroke: none;
            "
          />
          <path
            d="m 9001.02,12638.4 -3196.34,0 0,1850.7 3196.34,0 0,-1850.7 z m -1595.5,1986.4 c 18.74,0 33.93,-15.2 33.93,-34 0,-18.7 -15.19,-33.9 -33.93,-33.9 -18.73,0 -33.92,15.2 -33.92,33.9 0,18.8 15.19,34 33.92,34 z m 2221.99,-2144.7 -407.87,0 0,2139.6 c 0,27.8 -21.68,50.3 -49.42,50.3 l -3502.97,0 c -27.74,0 -51.04,-22.5 -51.04,-50.3 l 0,-2139.6 -432.67,0 c -8.33,0 -15.87,-6.8 -15.87,-15.1 l 0,-18.9 c 0,-8.3 7.54,-15 15.87,-15 l 4443.97,0 c 8.33,0 14.28,6.7 14.28,15 l 0,18.9 c 0,8.3 -5.95,15.1 -14.28,15.1"
            id="path32"
            style="
              fill: #231f20;
              fill-opacity: 1;
              fill-rule: evenodd;
              stroke: none;
            "
          />
          <path
            d="m 4209.18,10976.1 -3942.645,0 c -31.226,0 -55.457,-27.8 -55.457,-59.1 l 0,-2352.01 c 0,-31.21 24.231,-53.98 55.457,-53.98 l 1618.105,0 0,-290.23 -0.11,0 -206.83,-184.13 c -7.43,-2.56 -12.79,-9.72 -12.79,-17.94 0,-10.44 8.53,-19 19.05,-19 l 1111.54,-0.04 c 10.53,0 19.06,9.05 19.06,19.49 0,4.86 -1.9,9.39 -4.94,13.16 l 1.8,0 -214.39,185.86 0,292.83 1612.15,0 c 31.25,0 57.63,22.77 57.63,53.98 l 0,2352.01 c 0,31.3 -26.38,59.1 -57.63,59.1"
            id="path34"
            style="
              fill: #575454;
              fill-opacity: 1;
              fill-rule: evenodd;
              stroke: none;
            "
          />
          <path
            d="m 361.852,8695.03 3754.19,0 0,2103.25 -3754.19,0 0,-2103.25 z"
            id="path36"
            style="
              fill: #ffffff;
              fill-opacity: 1;
              fill-rule: evenodd;
              stroke: none;
            "
          />
          <path
            d="m 9362.87,8695.71 -3754.19,0 0,2103.29 3754.19,0 0,-2103.29 z m 93.14,2280.39 -3942.66,0 c -31.21,0 -55.45,-28.1 -55.45,-59.3 l 0,-2352.07 c 0,-31.21 24.24,-53.72 55.45,-53.72 l 1618.11,0 0,-290.23 -0.11,0 -206.82,-184.24 c -7.43,-2.6 -12.78,-9.8 -12.78,-18.06 0,-10.44 8.52,-19.03 19.04,-19.03 l 1111.55,-0.04 c 10.52,0 19.04,9.2 19.04,19.6 0,4.86 -1.89,9.54 -4.94,13.31 l 1.81,0 -214.4,185.59 0,293.1 1612.16,0 c 31.24,0 57.63,22.51 57.63,53.72 l 0,2352.07 c 0,31.2 -26.39,59.3 -57.63,59.3"
            id="path38"
            style="
              fill: #231f20;
              fill-opacity: 1;
              fill-rule: evenodd;
              stroke: none;
            "
          />
          <path
            d="m 1466.76,6094.84 1543.67,0 c 41.63,0 74.67,-33.74 74.67,-75.39 l 0.24,-2053.16 c 0,-41.65 -33.28,-72.56 -74.91,-72.56 l -1543.67,0.11 c -41.63,0 -74.21,30.09 -74.21,71.73 l 0.36,2053.88 c 0,41.65 32.22,75.39 73.85,75.39"
            id="path40"
            style="
              fill: #575454;
              fill-opacity: 1;
              fill-rule: evenodd;
              stroke: none;
            "
          />
          <path
            d="m 1560.5,5891.37 1356.89,0.15 -0.12,-1816.9 -1356.77,-0.04 0,1816.79"
            id="path42"
            style="
              fill: #ffffff;
              fill-opacity: 1;
              fill-rule: evenodd;
              stroke: none;
            "
          />
          <path
            d="m 2238.95,5998.91 c 11.13,0 20.16,-9.05 20.16,-20.17 0,-11.12 -9.03,-20.16 -20.16,-20.16 -11.14,0 -20.16,9.04 -20.16,20.16 0,11.12 9.02,20.17 20.16,20.17"
            id="path44"
            style="
              fill: #abaaaa;
              fill-opacity: 1;
              fill-rule: evenodd;
              stroke: none;
            "
          />
          <path
            d="m 2238.95,4026.18 c 27.86,0 50.44,-22.61 50.44,-50.47 0,-27.85 -22.58,-50.43 -50.44,-50.43 -27.86,0 -50.45,22.58 -50.45,50.43 0,27.86 22.59,50.47 50.45,50.47"
            id="path46"
            style="
              fill: #656263;
              fill-opacity: 1;
              fill-rule: evenodd;
              stroke: none;
            "
          />
          <path
            d="m 2230.14,3999.8 17.61,0 c 8.17,0 14.79,-6.64 14.79,-14.78 l 0,-17.6 c 0,-8.18 -6.62,-14.81 -14.79,-14.81 l -17.61,0 c -8.17,0 -14.78,6.63 -14.78,14.81 l 0,17.6 c 0,8.14 6.61,14.78 14.78,14.78"
            id="path48"
            style="
              fill: #9c9a9b;
              fill-opacity: 1;
              fill-rule: evenodd;
              stroke: none;
            "
          />
          <path
            d="m 8164.09,4074.62 -1356.79,-0.04 0,1816.79 1356.9,0.15 -0.11,-1816.9 z m -678.32,-149.34 c -27.86,0 -50.43,22.58 -50.43,50.43 0,27.86 22.57,50.47 50.43,50.47 27.85,0 50.43,-22.61 50.43,-50.47 0,-27.85 -22.58,-50.43 -50.43,-50.43 z m 0,2073.63 c 11.12,0 20.17,-9.05 20.17,-20.17 0,-11.12 -9.05,-20.16 -20.17,-20.16 -11.12,0 -20.16,9.04 -20.16,20.16 0,11.12 9.04,20.17 20.16,20.17 z m 846.16,20.58 c 0,41.65 -33.05,75.42 -74.66,75.42 l -1543.67,0 c -41.65,0 -73.88,-33.77 -73.88,-75.42 l -0.34,-2053.92 c 0,-41.61 32.57,-71.73 74.22,-71.73 l 1543.67,-0.11 c 41.61,0 74.89,30.95 74.89,72.56 l -0.23,2053.2"
            id="path50"
            style="
              fill: #231f20;
              fill-opacity: 1;
              fill-rule: evenodd;
              stroke: none;
            "
          />
          <path
            d="m 7512.16,3984.42 c 0,8.14 -6.64,14.78 -14.78,14.78 l -19.45,0 c -8.14,0 -14.77,-6.64 -14.77,-14.78 l 0,-19.45 c 0,-8.14 6.63,-14.77 14.77,-14.77 l 19.45,0 c 8.14,0 14.78,6.63 14.78,14.77 l 0,19.45"
            id="path52"
            style="
              fill: #231f20;
              fill-opacity: 1;
              fill-rule: evenodd;
              stroke: none;
            "
          />
          <path
            d="m 1985.05,1394.52 507.11,0 c 41.63,0 74.74,-33.74 74.74,-75.39 l 0,-1246.0792 c 0,-41.6133 -33.11,-72.937519 -74.74,-72.937519 l -507.11,0 c -41.64,0 -74.06,30.382819 -74.06,71.992219 l 0.07,1246.6845 c 0,41.62 32.35,75.73 73.99,75.73"
            id="path54"
            style="
              fill: #575454;
              fill-opacity: 1;
              fill-rule: evenodd;
              stroke: none;
            "
          />
          <path
            d="m 2238.95,162.684 c 23.32,0 42.22,-18.922 42.22,-42.254 0,-23.2933 -18.9,-42.2152 -42.22,-42.2152 -23.33,0 -42.23,18.9219 -42.23,42.2152 0,23.332 18.9,42.254 42.23,42.254"
            id="path56"
            style="
              fill: #656263;
              fill-opacity: 1;
              fill-rule: evenodd;
              stroke: none;
            "
          />
          <path
            d="m 2231.57,140.594 14.75,0 c 6.83,0 12.38,-5.539 12.38,-12.364 l 0,-14.738 c 0,-6.859 -5.55,-12.398 -12.38,-12.398 l -14.75,0 c -6.83,0 -12.37,5.539 -12.37,12.398 l 0,14.738 c 0,6.825 5.54,12.364 12.37,12.364"
            id="path58"
            style="
              fill: #9c9a9b;
              fill-opacity: 1;
              fill-rule: evenodd;
              stroke: none;
            "
          />
          <path
            d="m 1952.41,1226.26 572.63,0.22 0.44,-999.156 -573.07,0.078 0,998.858"
            id="path60"
            style="
              fill: #ffffff;
              fill-opacity: 1;
              fill-rule: evenodd;
              stroke: none;
            "
          />
          <path
            d="m 2179.73,1301.68 118.43,0 c 4.61,0 8.35,-3.43 8.35,-8.03 0,-4.6 -3.74,-7.08 -8.35,-7.08 l -118.43,0 c -4.61,0 -8.34,2.48 -8.34,7.08 0,4.6 3.73,8.03 8.34,8.03"
            id="path62"
            style="
              fill: #abaaaa;
              fill-opacity: 1;
              fill-rule: evenodd;
              stroke: none;
            "
          />
          <path
            d="m 2238.95,1360.25 c 4.6,0 8.34,-3.73 8.34,-8.32 0,-4.64 -3.74,-8.37 -8.34,-8.37 -4.61,0 -8.34,3.73 -8.34,8.37 0,4.59 3.73,8.32 8.34,8.32"
            id="path64"
            style="
              fill: #abaaaa;
              fill-opacity: 1;
              fill-rule: evenodd;
              stroke: none;
            "
          />
          <path
            d="m 7500.85,127.102 c 0,6.82 -5.54,12.363 -12.37,12.363 l -12.96,0 c -6.82,0 -12.36,-5.543 -12.36,-12.363 l 0,-12.969 c 0,-6.821 5.54,-12.363 12.36,-12.363 l 12.96,0 c 6.83,0 12.37,5.542 12.37,12.363 l 0,12.969"
            id="path66"
            style="
              fill: #231f20;
              fill-opacity: 1;
              fill-rule: evenodd;
              stroke: none;
            "
          />
          <path
            d="m 7199.3,227.402 0,998.858 572.22,0.22 0.64,-999.156 -572.86,0.078 z M 7485.02,78.2148 c -23.34,0 -42.26,18.9219 -42.26,42.2152 0,23.332 18.92,42.254 42.26,42.254 23.29,0 42.21,-18.922 42.21,-42.254 0,-23.2933 -18.92,-42.2152 -42.21,-42.2152 z M 7425.8,1300.4 l 118.43,0 c 4.6,0 8.33,-3.39 8.33,-8.03 0,-4.6 -3.73,-7.05 -8.33,-7.05 l -118.43,0 c -4.64,0 -8.37,2.45 -8.37,7.05 0,4.64 3.73,8.03 8.37,8.03 z m 59.22,59.85 c 4.6,0 8.33,-3.73 8.33,-8.32 0,-4.64 -3.73,-8.37 -8.33,-8.37 -4.64,0 -8.37,3.73 -8.37,8.37 0,4.59 3.73,8.32 8.37,8.32 z m 253.22,34.38 -507.12,0 c -41.65,0 -73.99,-34.15 -73.99,-75.8 L 7157.05,72.1055 C 7157.05,30.457 7189.47,0 7231.12,0 l 507.12,0 c 41.61,0 75.46,31.4375 75.46,73.0508 l 0,1246.0792 c 0,41.65 -33.85,75.5 -75.46,75.5"
            id="path68"
            style="
              fill: #231f20;
              fill-opacity: 1;
              fill-rule: evenodd;
              stroke: none;
            "
          />
        </g>
      </g>
    </g>
  </g>
</svg>
